<svg xmlns="http://www.w3.org/2000/svg" width="759.43" height="79.96" viewBox="0 0 759.43 79.96"><defs><style>.cls-1{fill:none;}.cls-2{fill:#e91e63;}.cls-3{fill:#e91e63;}.cls-4{fill:#891281;}</style></defs><title>fixiversityL</title><g id="Layer_1" data-name="Layer 1"><rect class="cls-1" x="118.59" y="56.27" width="8.08" height="18.44" rx="1.57" ry="1.57"/><rect class="cls-1" x="118.59" y="30.76" width="8.08" height="18.44" rx="1.57" ry="1.57"/><rect class="cls-1" x="132.01" y="56.27" width="8.08" height="18.44" rx="1.46" ry="1.46"/><rect class="cls-1" x="118.59" y="5.25" width="8.08" height="18.44" rx="1.57" ry="1.57"/><rect class="cls-1" x="105.13" y="5.25" width="8.08" height="18.44" rx="1.71" ry="1.71"/><rect class="cls-1" x="105.13" y="30.76" width="8.08" height="18.44" rx="1.71" ry="1.71"/><rect class="cls-1" x="105.13" y="56.27" width="8.08" height="18.44" rx="1.71" ry="1.71"/><rect class="cls-1" x="145.79" y="5.25" width="8.08" height="18.44" rx="1.84" ry="1.84"/><rect class="cls-1" x="145.79" y="30.76" width="8.08" height="18.44" rx="1.84" ry="1.84"/><rect class="cls-1" x="132.01" y="5.25" width="8.08" height="18.44" rx="1.46" ry="1.46"/><rect class="cls-1" x="145.79" y="56.27" width="8.08" height="18.44" rx="1.84" ry="1.84"/><rect class="cls-1" x="132.01" y="30.76" width="8.08" height="18.44" rx="1.46" ry="1.46"/><path class="cls-2" d="M297,437.69V399.46H233.69v80h95V437.69Zm-48.86,34.78a1.71,1.71,0,0,1-1.71,1.71h-4.67a1.71,1.71,0,0,1-1.71-1.71v-15a1.71,1.71,0,0,1,1.71-1.71h4.67a1.71,1.71,0,0,1,1.71,1.71Zm0-25.51a1.71,1.71,0,0,1-1.71,1.71h-4.67A1.71,1.71,0,0,1,240,447v-15a1.71,1.71,0,0,1,1.71-1.71h4.67a1.71,1.71,0,0,1,1.71,1.71Zm0-25.51a1.71,1.71,0,0,1-1.71,1.71h-4.67a1.71,1.71,0,0,1-1.71-1.71v-15a1.71,1.71,0,0,1,1.71-1.71h4.67a1.71,1.71,0,0,1,1.71,1.71Zm13.46,51.15a1.57,1.57,0,0,1-1.57,1.57H255a1.57,1.57,0,0,1-1.57-1.57V457.3a1.57,1.57,0,0,1,1.57-1.57H260a1.57,1.57,0,0,1,1.57,1.57Zm0-25.51a1.57,1.57,0,0,1-1.57,1.57H255a1.57,1.57,0,0,1-1.57-1.57v-15.3a1.57,1.57,0,0,1,1.57-1.57H260a1.57,1.57,0,0,1,1.57,1.57Zm0-25.51a1.57,1.57,0,0,1-1.57,1.57H255a1.57,1.57,0,0,1-1.57-1.57v-15.3a1.57,1.57,0,0,1,1.57-1.57H260a1.57,1.57,0,0,1,1.57,1.57ZM275,472.71a1.46,1.46,0,0,1-1.46,1.46h-5.16a1.46,1.46,0,0,1-1.46-1.46V457.19a1.46,1.46,0,0,1,1.46-1.46h5.16a1.46,1.46,0,0,1,1.46,1.46Zm0-25.51a1.46,1.46,0,0,1-1.46,1.46h-5.16a1.46,1.46,0,0,1-1.46-1.46V431.68a1.46,1.46,0,0,1,1.46-1.46h5.16a1.46,1.46,0,0,1,1.46,1.46Zm0-25.51a1.46,1.46,0,0,1-1.46,1.46h-5.16a1.46,1.46,0,0,1-1.46-1.46V406.17a1.46,1.46,0,0,1,1.46-1.46h5.16a1.46,1.46,0,0,1,1.46,1.46Zm13.78,50.64a1.84,1.84,0,0,1-1.84,1.84h-4.4a1.84,1.84,0,0,1-1.84-1.84V457.57a1.84,1.84,0,0,1,1.84-1.84h4.4a1.84,1.84,0,0,1,1.84,1.84Zm0-25.51a1.84,1.84,0,0,1-1.84,1.84h-4.4a1.84,1.84,0,0,1-1.84-1.84V432.06a1.84,1.84,0,0,1,1.84-1.84h4.4a1.84,1.84,0,0,1,1.84,1.84Zm0-25.51a1.84,1.84,0,0,1-1.84,1.84h-4.4a1.84,1.84,0,0,1-1.84-1.84V406.55a1.84,1.84,0,0,1,1.84-1.84h4.4a1.84,1.84,0,0,1,1.84,1.84Z" transform="translate(-134.88 -399.46)"/><path class="cls-3" d="M227.14,434.2v12.62a1.84,1.84,0,0,1-1.84,1.84h-4.4a1.84,1.84,0,0,1-1.84-1.84V432.49l-9-9-10.12,10.12v13.48a1.57,1.57,0,0,1-1.57,1.57h-4.94a1.57,1.57,0,0,1-1.57-1.57v-9.85l-5.39-5.39s0,0,0,.07v15a1.71,1.71,0,0,1-1.71,1.71h-4.67a1.71,1.71,0,0,1-1.71-1.71v-15a1.71,1.71,0,0,1,1.71-1.71h4.74l-4.13-4.13-13,13-13.55-13.55-13.89,13.89-5.38,40h98.81v-80Zm-40.65,38.31a1.71,1.71,0,0,1-1.71,1.71h-4.67a1.71,1.71,0,0,1-1.71-1.71v-15a1.71,1.71,0,0,1,1.71-1.71h4.67a1.71,1.71,0,0,1,1.71,1.71Zm13.46.13a1.57,1.57,0,0,1-1.57,1.57h-4.94a1.57,1.57,0,0,1-1.57-1.57v-15.3a1.57,1.57,0,0,1,1.57-1.57h4.94a1.57,1.57,0,0,1,1.57,1.57Zm13.42.11a1.46,1.46,0,0,1-1.46,1.46h-5.16a1.46,1.46,0,0,1-1.46-1.46V457.23a1.46,1.46,0,0,1,1.46-1.46h5.16a1.46,1.46,0,0,1,1.46,1.46Zm0-25.55a1.46,1.46,0,0,1-1.46,1.46h-5.16a1.46,1.46,0,0,1-1.46-1.46V431.68a1.46,1.46,0,0,1,1.46-1.46h5.16a1.46,1.46,0,0,1,1.46,1.46Zm13.78,25.17a1.84,1.84,0,0,1-1.84,1.84h-4.4a1.84,1.84,0,0,1-1.84-1.84V457.62a1.84,1.84,0,0,1,1.84-1.84h4.4a1.84,1.84,0,0,1,1.84,1.84Z" transform="translate(-134.88 -399.46)"/></g><g id="Layer_3" data-name="Layer 3"><path class="cls-2" d="M351.6,410.59a1.91,1.91,0,0,1,.48-1.38,1.69,1.69,0,0,1,1.15-.54h40a1.83,1.83,0,0,1,1.44.54,2.12,2.12,0,0,1,.48,1.46V421a2.18,2.18,0,0,1-.5,1.36,1.74,1.74,0,0,1-1.46.65H374.27a6.48,6.48,0,0,0-6.48,6.48h0a6.48,6.48,0,0,0,6.48,6.48h12.3a2.06,2.06,0,0,1,1.34.44,1.7,1.7,0,0,1,.54,1.4v10a2.25,2.25,0,0,1-.48,1.36,1.55,1.55,0,0,1-1.32.65H374.27a6.48,6.48,0,0,0-6.48,6.48V469q0,1.8-1.92,1.8H353.11A1.58,1.58,0,0,1,351.6,469Z" transform="translate(-134.88 -399.46)"/><path class="cls-2" d="M405.68,410.5a1.94,1.94,0,0,1,.46-1.3,1.71,1.71,0,0,1,1.38-.54h12.3a2.36,2.36,0,0,1,1.34.5,1.56,1.56,0,0,1,.71,1.34v58.42q0,1.84-2,1.84h0a14.14,14.14,0,0,1-14.14-14.14Z" transform="translate(-134.88 -399.46)"/><path class="cls-2" d="M429.26,469.68l.69-1.28a15.06,15.06,0,0,1,.82-1.32l18.6-27.78a.6.6,0,0,0,0-.66l-9.29-14-9.51-14.3a4,4,0,0,1-.4-.63,1.89,1.89,0,0,1-.19-.63.41.41,0,0,1,.48-.31,1.61,1.61,0,0,0,.82-.19h14.55a2.69,2.69,0,0,1,2.43,1.59L458,424.87a.59.59,0,0,0,1,0l9.88-14.66a2.68,2.68,0,0,1,2.43-1.59h13.93l.86,0a2,2,0,0,1,.69.15.4.4,0,0,1,.29.38,1.81,1.81,0,0,1-.46,1.09l-19,28.4a.59.59,0,0,0,0,.66L487,468.26a7.44,7.44,0,0,1,.65,1.07,1.53,1.53,0,0,1,.19.82q0,.63-.75.63h-15a2.18,2.18,0,0,1-1.3-.42,2.82,2.82,0,0,1-.92-1.13L459,453.1a.59.59,0,0,0-1,0l-10.76,16.12a2.84,2.84,0,0,1-.92,1.13,2.63,2.63,0,0,1-1.54.42H430a.94.94,0,0,1-.59-.19.62.62,0,0,1-.25-.52A.82.82,0,0,1,429.26,469.68Z" transform="translate(-134.88 -399.46)"/><path class="cls-2" d="M496.3,410.5a1.94,1.94,0,0,1,.46-1.3,1.71,1.71,0,0,1,1.38-.54h12.3a2.36,2.36,0,0,1,1.34.5,1.56,1.56,0,0,1,.71,1.34v58.42q0,1.84-2,1.84h0a14.14,14.14,0,0,1-14.14-14.14Z" transform="translate(-134.88 -399.46)"/><path class="cls-2" d="M543.06,469.89a13.63,13.63,0,0,1-.82-1.55q-.36-.79-.69-1.63L520.1,410.54a1.08,1.08,0,0,0-.06-.38.94.94,0,0,1-.06-.33q0-1.17,1.55-1.17H535a2.17,2.17,0,0,1,2.17,1.59l12.76,38.06q1.71-4.77,3.28-9.51t3.09-9.51q1.53-4.77,3.09-9.51t3.28-9.51a2.25,2.25,0,0,1,2.3-1.59h13.17a2,2,0,0,1,1.36.36,1.2,1.2,0,0,1,.4.94,1.7,1.7,0,0,1,0,.46v.13l-21.58,56.17c-.14.39-.31.82-.5,1.3a9,9,0,0,1-.67,1.32,4.18,4.18,0,0,1-.88,1,1.72,1.72,0,0,1-1.13.42H544.77A1.7,1.7,0,0,1,543.06,469.89Z" transform="translate(-134.88 -399.46)"/><path class="cls-2" d="M587.43,410.59a2,2,0,0,1,.48-1.4,1.75,1.75,0,0,1,1.36-.52h41.49a1.84,1.84,0,0,1,1.42.54,2.06,2.06,0,0,1,.5,1.46V421a2.18,2.18,0,0,1-.5,1.36,1.74,1.74,0,0,1-1.46.65H608.8a5.19,5.19,0,0,0-5.19,5.19h0a5.19,5.19,0,0,0,5.19,5.19h15.72a2.2,2.2,0,0,1,1.32.38,1.44,1.44,0,0,1,.52,1.25v9a1.73,1.73,0,0,1-.46,1.13,1.65,1.65,0,0,1-1.34.54H608.8a5.19,5.19,0,0,0-5.19,5.19v.33a5.19,5.19,0,0,0,5.19,5.19h22.92a1.68,1.68,0,0,1,1.88,1.92v10.51a1,1,0,0,1-.33.75q-.17,1.17-1.71,1.17H589.27a2,2,0,0,1-1.33-.44,1.71,1.71,0,0,1-.5-1.36Z" transform="translate(-134.88 -399.46)"/><path class="cls-2" d="M644,410.59a2,2,0,0,1,.46-1.4,1.74,1.74,0,0,1,1.38-.52h27a20.3,20.3,0,0,1,8.07,1.61,21,21,0,0,1,6.57,4.37,20.42,20.42,0,0,1,4.41,6.46,19.55,19.55,0,0,1,1.61,7.88,18.69,18.69,0,0,1-.77,5.42,20.16,20.16,0,0,1-2.15,4.81,20.39,20.39,0,0,1-3.28,4.06q-.63.6-1.3,1.15a4.25,4.25,0,0,0-1.1,5.29l9,16.92q.29.59.75,1.38a2.87,2.87,0,0,1,.46,1.38,1.24,1.24,0,0,1-.44,1,1.84,1.84,0,0,1-1.19.36H679.1a2.09,2.09,0,0,1-1.28-.42,1.9,1.9,0,0,1-.73-1.13l-9-16.87a4.23,4.23,0,0,0-3.74-2.25h0a4.23,4.23,0,0,0-4.23,4.23V469q0,1.8-1.92,1.8H645.81a2,2,0,0,1-1.34-.44A1.72,1.72,0,0,1,644,469Zm32.75,18.57a7.26,7.26,0,0,0-.46-2.51,8.17,8.17,0,0,0-1.3-2.3,7.62,7.62,0,0,0-2-1.76,6.86,6.86,0,0,0-2.59-.92l-2.2-.15q-1-.06-2.24-.06h-1.54a4.23,4.23,0,0,0-4.23,4.23v6.88a4.23,4.23,0,0,0,4.23,4.23h3.46c.5,0,.95,0,1.34,0s.82-.07,1.3-.13a6.59,6.59,0,0,0,2.63-.86,6.85,6.85,0,0,0,2-1.71,7.57,7.57,0,0,0,1.21-2.3A8.36,8.36,0,0,0,676.72,429.15Z" transform="translate(-134.88 -399.46)"/><path class="cls-2" d="M710.55,450.69q.71.59,1.82,1.57a24.58,24.58,0,0,0,2.53,1.94,21.23,21.23,0,0,0,4.22,2.22,12.25,12.25,0,0,0,4.39.79,11.46,11.46,0,0,0,3.58-.48,6.05,6.05,0,0,0,2.28-1.28,4.52,4.52,0,0,0,1.19-1.84,6.86,6.86,0,0,0,.36-2.22,3.27,3.27,0,0,0-1-2.32,10.2,10.2,0,0,0-2.4-1.82,20.5,20.5,0,0,0-3-1.36q-1.55-.56-2.68-.94a61.13,61.13,0,0,1-8.78-3.78,27.07,27.07,0,0,1-6.27-4.51,16.24,16.24,0,0,1-5-12.14,15.74,15.74,0,0,1,1.57-7.06,15.51,15.51,0,0,1,4.48-5.43,21.33,21.33,0,0,1,7-3.49,31.75,31.75,0,0,1,9.16-1.23,30.55,30.55,0,0,1,7.3.86,27.8,27.8,0,0,1,6.88,2.74q1.42.84,2.7,1.73t2.24,1.74a10.67,10.67,0,0,1,1.53,1.59,2.32,2.32,0,0,1,.56,1.3,1.94,1.94,0,0,1-.27,1,6.44,6.44,0,0,1-.82,1l-6.4,6.82a2,2,0,0,1-1.42.71,1.82,1.82,0,0,1-1.07-.33,13.4,13.4,0,0,1-1.07-.84l-.38-.33q-.84-.71-1.86-1.46a16.69,16.69,0,0,0-2.2-1.36,14.73,14.73,0,0,0-2.47-1,8.93,8.93,0,0,0-2.63-.4,13.93,13.93,0,0,0-2.59.23,7.26,7.26,0,0,0-2.13.73,4.05,4.05,0,0,0-1.46,1.32,3.84,3.84,0,0,0,0,4,5.77,5.77,0,0,0,1.76,1.59,16.17,16.17,0,0,0,2.91,1.38q1.73.65,4,1.4,4.43,1.46,8.18,3.07a27.62,27.62,0,0,1,6.46,3.81,15.74,15.74,0,0,1,4.24,5.25,16.41,16.41,0,0,1,1.53,7.4,18.32,18.32,0,0,1-1.88,8.34,19.07,19.07,0,0,1-5.17,6.38,24.1,24.1,0,0,1-7.72,4.08,30.66,30.66,0,0,1-9.54,1.44,27,27,0,0,1-9.45-1.72,36.28,36.28,0,0,1-8.66-4.61,22.38,22.38,0,0,1-2.82-2.39q-1.15-1.17-1.82-1.89l-.12-.13a.24.24,0,0,0-.08-.11l-.08-.06a.24.24,0,0,0-.08-.11l-.08-.06a2.93,2.93,0,0,1-1-1.68,2.38,2.38,0,0,1,1-1.59l7.24-6.9a2.72,2.72,0,0,1,1.42-.63,1.55,1.55,0,0,1,.79.25A7.66,7.66,0,0,1,710.55,450.69Z" transform="translate(-134.88 -399.46)"/><path class="cls-2" d="M757.77,410.5a1.94,1.94,0,0,1,.46-1.3,1.71,1.71,0,0,1,1.38-.54h12.3a2.36,2.36,0,0,1,1.34.5,1.56,1.56,0,0,1,.71,1.34v58.42q0,1.84-2,1.84h0a14.14,14.14,0,0,1-14.14-14.14Z" transform="translate(-134.88 -399.46)"/><path class="cls-2" d="M784,410.5a1.7,1.7,0,0,1,.56-1.33,2,2,0,0,1,1.4-.5h45a2.11,2.11,0,0,1,1.34.46,1.88,1.88,0,0,1,.67,1.38v10.38a2.35,2.35,0,0,1-.52,1.44A1.76,1.76,0,0,1,831,423H816.57V468.8a2,2,0,0,1-.54,1.36,1.81,1.81,0,0,1-1.42.61H802.34a2,2,0,0,1-1.34-.56,1.81,1.81,0,0,1-.63-1.4V423H786a2,2,0,0,1-1.4-.54,2.1,2.1,0,0,1-.56-1.59Z" transform="translate(-134.88 -399.46)"/><path class="cls-2" d="M865.89,431.58,876,410a5.51,5.51,0,0,1,.42-.73,1.24,1.24,0,0,1,.33-.33.86.86,0,0,1,.36-.13,2.15,2.15,0,0,0,.44-.1h16.1a.65.65,0,0,1,.48.19.6.6,0,0,1,.19.44,1.62,1.62,0,0,1-.59,1l-8.32,14.73a88.9,88.9,0,0,0-11.5,43.73h0a1.72,1.72,0,0,1-1.92,2H859.47a1.63,1.63,0,0,1-1.29-.52,2.11,2.11,0,0,1-.46-1.44h0a89.2,89.2,0,0,0-11.54-43.89l-8.24-14.58a1.54,1.54,0,0,1-.54-1,.64.64,0,0,1,.17-.44.58.58,0,0,1,.46-.19h16.1a3.22,3.22,0,0,0,.46.1.85.85,0,0,1,.33.13,1.27,1.27,0,0,1,.33.33q.17.23.46.73Z" transform="translate(-134.88 -399.46)"/><path class="cls-4" d="M263.92,568.68" transform="translate(-134.88 -399.46)"/></g></svg>

